:SAMPLES-PER-SECOND 30
:FULLY-SPECIFIED
:DEGREES
169
root  -46.9394 40.9671 -33.6098 174.748 7.33805 179.844
RightUpLeg  -5.09692 -6.71732 -0.322334
RightLeg  10.0857 4.5567 4.56997
RightFoot  1.8986 0.883639 -7.48389
RightToes  1.74622e-010 0 -3.6325e-017
Spine  6.40574 1.26307 8.73715
Spine1  2.88708 2.43033 -3.59284
HEad  -9.04006 0.871683 -1.24806
LeftShoulder1  3.52454 -5.79714 -31.7995
LeftArm  -11.1075 21.5173 -14.6353
LeftForeArm  18.5681 -6.98394 -3.92659
LeftHand  -0.244104 0.0205437 5.32207
RightShoulder  3.48787 6.6254 28.4282
RightArm  -14.4674 -10.6517 15.7004
RightForeArm  3.72854 5.6744 4.65886
RightHand  -1.30282 4.45851 -15.5477
LeftUpLeg  -5.85018 7.7094 5.00073
LeftLeg  9.48184 6.37321 -0.337285
LeftFoot  1.32362 0.277089 -2.53984
LeftToes  -3.34697e-010 -1.70107e-010 -9.05613e-011
170
root  -46.9999 41.0646 -34.0256 175.008 6.75251 179.986
RightUpLeg  -4.17784 -6.38523 -0.428014
RightLeg  9.19235 3.83439 4.25396
RightFoot  1.47212 0.789928 -6.93153
RightToes  1.74622e-010 0 -3.6325e-017
Spine  5.96645 1.0787 7.51598
Spine1  2.10533 1.9453 -2.69356
HEad  -7.57851 0.990961 -0.646589
LeftShoulder1  2.66766 -4.4935 -27.1831
LeftArm  -11.7185 21.5286 -10.8409
LeftForeArm  17.8112 -8.49254 -3.6008
LeftHand  -0.244104 0.0205437 5.32207
RightShoulder  2.69257 5.25986 24.5865
RightArm  -14.6593 -9.44887 10.9975
RightForeArm  1.27086 5.23374 4.66788
RightHand  -1.34116 4.45458 -15.9983
LeftUpLeg  -4.87596 7.30612 5.18633
LeftLeg  8.31173 6.36427 -1.01371
LeftFoot  1.71782 0.215933 -1.97519
LeftToes  -3.34697e-010 -1.70107e-010 -9.05613e-011
171
root  -47.0639 41.1685 -34.3953 175.233 5.70803 179.805
RightUpLeg  -3.29579 -6.23681 -0.893403
RightLeg  8.27328 2.88238 3.92626
RightFoot  1.2172 0.719236 -6.44978
RightToes  1.74622e-010 0 -3.6325e-017
Spine  5.52975 0.739308 6.18264
Spine1  1.49127 1.39747 -2.11246
HEad  -6.60419 0.850207 -0.244861
LeftShoulder1  2.07261 -3.59942 -22.8022
LeftArm  -12.1641 20.79 -6.7901
LeftForeArm  17.643 -10.0104 -3.37014
LeftHand  -0.244104 0.0205437 5.32207
RightShoulder  1.97647 3.80384 20.673
RightArm  -15.3765 -8.31766 7.13836
RightForeArm  -1.66191 4.80246 4.61742
RightHand  -1.32362 4.18326 -16.223
LeftUpLeg  -3.7933 6.16446 4.98081
LeftLeg  6.58278 6.76472 -1.59873
LeftFoot  1.55531 0.255952 -2.34711
LeftToes  -3.34697e-010 -1.70107e-010 -9.05613e-011
172
root  -47.1594 41.2641 -34.7389 175.57 4.81241 179.608
RightUpLeg  -2.58817 -6.243 -1.40525
RightLeg  7.33558 2.22337 3.72969
RightFoot  1.11661 0.658087 -5.94941
RightToes  1.74622e-010 0 -3.6325e-017
Spine  4.85452 0.503093 5.4596
Spine1  1.18187 1.07607 -2.03417
HEad  -5.96902 0.623791 -0.341095
LeftShoulder1  1.60156 -2.78046 -18.8444
LeftArm  -12.5015 19.0698 -3.30102
LeftForeArm  17.7703 -11.3345 -3.28764
LeftHand  -0.244104 0.0205437 5.32207
RightShoulder  1.30507 2.16199 16.3102
RightArm  -16.2684 -7.11341 4.42042
RightForeArm  -4.22803 4.09097 4.50011
RightHand  -1.28823 3.85479 -16.3378
LeftUpLeg  -2.81435 5.09164 4.65344
LeftLeg  4.63052 6.99193 -2.19992
LeftFoot  1.86145 0.29683 -2.66336
LeftToes  -3.34697e-010 -1.70107e-010 -9.05613e-011
173
root  -47.2859 41.332 -35.0561 176.022 4.25177 179.556
RightUpLeg  -2.14011 -6.29395 -1.77286
RightLeg  6.58871 1.9025 3.64043
RightFoot  0.878261 0.589676 -5.44392
RightToes  1.74622e-010 0 -3.6325e-017
Spine  4.09411 0.436958 5.33433
Spine1  0.945124 0.975091 -2.1375
HEad  -5.34078 0.426981 -0.703094
LeftShoulder1  1.191 -1.83851 -15.3668
LeftArm  -13.0052 16.6914 -0.930538
LeftForeArm  17.5224 -12.541 -3.32217
LeftHand  -0.244104 0.0205437 5.32207
RightShoulder  0.744067 0.441571 11.7519
RightArm  -17.1832 -5.75885 2.52927
RightForeArm  -5.90607 3.37076 4.35732
RightHand  -1.20852 3.44542 -16.0322
LeftUpLeg  -2.19322 4.66707 4.39617
LeftLeg  3.25963 6.88527 -2.64064
LeftFoot  2.11889 0.296268 -2.61973
LeftToes  -3.34697e-010 -1.70107e-010 -9.05613e-011
174
root  -47.4156 41.3743 -35.3287 176.488 3.89143 179.557
RightUpLeg  -1.90571 -6.32165 -2.02998
RightLeg  6.10987 1.69102 3.5484
RightFoot  0.504333 0.524863 -5.0193
RightToes  1.74622e-010 0 -3.6325e-017
Spine  3.51549 0.417599 5.3168
Spine1  0.643473 0.929285 -2.23035
HEad  -4.70449 0.460055 -0.85895
LeftShoulder1  0.840496 -0.835683 -12.1267
LeftArm  -13.6497 14.3043 0.176552
LeftForeArm  16.8054 -13.698 -3.40363
LeftHand  -0.244104 0.0205437 5.32207
RightShoulder  0.390711 -0.955936 7.89778
RightArm  -18.1758 -4.39841 0.916176
RightForeArm  -7.32831 3.12995 4.26062
RightHand  -1.11868 3.02003 -15.5985
LeftUpLeg  -1.89804 4.60141 4.20959
LeftLeg  2.49422 6.68165 -2.91473
LeftFoot  1.96635 0.280016 -2.50284
LeftToes  -3.34697e-010 -1.70107e-010 -9.05613e-011
175
root  -47.5308 41.4057 -35.5454 176.935 3.66269 179.525
RightUpLeg  -1.8496 -6.30097 -2.23274
RightLeg  5.80627 1.49704 3.41492
RightFoot  0.207494 0.477279 -4.69994
RightToes  1.74622e-010 0 -3.6325e-017
Spine  3.15571 0.350908 5.17913
Spine1  0.333802 0.853863 -2.37301
HEad  -4.31586 0.999898 -0.761406
LeftShoulder1  0.574757 0.0485258 -9.09385
LeftArm  -14.1335 12.2478 0.294609
LeftForeArm  16.1009 -14.451 -3.51036
LeftHand  -0.244104 0.0205437 5.32207
RightShoulder  0.220434 -1.80138 5.19783
RightArm  -19.2245 -3.20887 -0.472674
RightForeArm  -9.17941 3.50246 4.25947
RightHand  -1.14738 3.09688 -15.8397
LeftUpLeg  -1.76054 4.60094 4.04132
LeftLeg  1.88314 6.41826 -3.14944
LeftFoot  1.82935 0.270392 -2.43872
LeftToes  -3.34697e-010 -1.70107e-010 -9.05613e-011
176
root  -47.6384 41.4311 -35.7099 177.359 3.57898 179.47
RightUpLeg  -1.9618 -6.25374 -2.40427
RightLeg  5.65396 1.40106 3.27019
RightFoot  0.0091743 0.44321 -4.45381
RightToes  1.74622e-010 0 -3.6325e-017
Spine  2.98967 0.232152 5.00606
Spine1  0.0214022 0.736015 -2.52973
HEad  -4.40506 1.54846 -0.819789
LeftShoulder1  0.44483 0.480836 -6.972
LeftArm  -14.1275 10.5758 0.307532
LeftForeArm  15.5489 -14.3448 -3.66778
LeftHand  -0.244104 0.0205437 5.32207
RightShoulder  0.139989 -2.26778 3.31821
RightArm  -20.1445 -2.06787 -1.25397
RightForeArm  -10.7893 4.10413 4.32975
RightHand  -1.354 4.07323 -16.7615
LeftUpLeg  -1.68068 4.58291 3.86274
LeftLeg  1.2797 6.20159 -3.37091
LeftFoot  1.92184 0.26244 -2.35794
LeftToes  -3.34697e-010 -1.70107e-010 -9.05613e-011
177
root  -47.747 41.4453 -35.8323 177.691 3.56421 179.407
RightUpLeg  -2.14316 -6.23888 -2.58227
RightLeg  5.67965 1.41789 3.13888
RightFoot  -0.206022 0.410431 -4.21959
RightToes  1.74622e-010 0 -3.6325e-017
Spine  3.08598 0.0295053 4.87529
Spine1  -0.343176 0.53993 -2.65848
HEad  -4.68141 2.11636 -0.940359
LeftShoulder1  0.478585 0.148674 -6.43595
LeftArm  -13.6233 9.41738 1.14182
LeftForeArm  15.122 -13.3901 -3.89037
LeftHand  -0.244104 0.0205437 5.32207
RightShoulder  0.10315 -2.49853 2.12651
RightArm  -20.7457 -0.762513 -1.38264
RightForeArm  -11.4234 4.50714 4.42858
RightHand  -1.63451 5.43077 -17.7017
LeftUpLeg  -1.65644 4.49888 3.63946
LeftLeg  0.89614 6.21112 -3.48627
LeftFoot  1.94248 0.251618 -2.26219
LeftToes  -3.34697e-010 -1.70107e-010 -9.05613e-011
178
root  -47.85 41.4482 -35.926 177.894 3.57113 179.361
RightUpLeg  -2.26431 -6.25211 -2.75492
RightLeg  5.77657 1.47745 3.03396
RightFoot  -0.438855 0.371012 -3.9146
RightToes  1.74622e-010 0 -3.6325e-017
Spine  3.37863 -0.268069 4.79694
Spine1  -0.65621 0.279655 -2.89261
HEad  -4.89295 2.75388 -0.751505
LeftShoulder1  0.625813 -0.734504 -7.03743
LeftArm  -13.0338 8.80333 2.5318
LeftForeArm  15.1199 -11.9609 -4.11103
LeftHand  -0.244104 0.0205437 5.32207
RightShoulder  0.118759 -2.34075 2.00901
RightArm  -20.899 0.579401 -1.27788
RightForeArm  -11.5651 4.59085 4.56628
RightHand  -1.82344 6.28508 -18.2996
LeftUpLeg  -1.71455 4.37896 3.41412
LeftLeg  0.865848 6.38873 -3.49003
LeftFoot  1.74904 0.238914 -2.17501
LeftToes  -3.34697e-010 -1.70107e-010 -9.05613e-011
179
root  -47.9367 41.448 -36.0089 178.041 3.7409 179.376
RightUpLeg  -2.31118 -6.23701 -2.84936
RightLeg  5.78378 1.64133 2.97356
RightFoot  -0.611305 0.329074 -3.54484
RightToes  1.74622e-010 0 -3.6325e-017
Spine  3.62786 -0.517318 4.74083
Spine1  -0.769411 0.091665 -3.23027
HEad  -5.10277 3.33093 -0.266752
LeftShoulder1  0.773333 -1.54081 -7.70779
LeftArm  -12.7064 8.43114 3.23886
LeftForeArm  15.4993 -10.2805 -4.23898
LeftHand  -0.244104 0.0205437 5.32207
RightShoulder  0.19407 -1.74043 2.90347
RightArm  -20.5488 1.63747 -1.13402
RightForeArm  -11.3013 4.29371 4.72497
RightHand  -1.81768 6.35849 -18.1283
LeftUpLeg  -1.80579 4.35847 3.30671
LeftLeg  1.01736 6.58565 -3.50451
LeftFoot  1.52422 0.225047 -2.07833
LeftToes  -3.34697e-010 -1.70107e-010 -9.05613e-011
180
root  -48.0068 41.449 -36.0943 178.206 4.20244 179.421
RightUpLeg  -2.38735 -6.20183 -2.87568
RightLeg  5.75098 2.05821 2.96191
RightFoot  -0.729585 0.299276 -3.27302
RightToes  1.74622e-010 0 -3.6325e-017
Spine  3.76478 -0.5368 4.61494
Spine1  -0.778702 0.105185 -3.40211
HEad  -5.4439 3.67631 0.0418017
LeftShoulder1  0.856784 -1.96718 -8.08296
LeftArm  -12.4259 8.00789 2.73029
LeftForeArm  15.0771 -8.35556 -4.32072
LeftHand  -0.244104 0.0205437 5.32207
RightShoulder  0.296026 -1.03104 4.03864
RightArm  -19.7641 2.32883 -0.778879
RightForeArm  -9.58057 3.47758 4.81414
RightHand  -1.60183 5.91396 -16.6329
LeftUpLeg  -1.8419 4.44119 3.30593
LeftLeg  1.12729 6.90109 -3.57251
LeftFoot  1.32729 0.212929 -1.99102
LeftToes  -3.34697e-010 -1.70107e-010 -9.05613e-011
181
root  -48.0693 41.4521 -36.1835 178.401 4.82929 179.432
RightUpLeg  -2.53677 -6.174 -2.90472
RightLeg  5.75359 2.6484 2.96207
RightFoot  -0.801513 0.290675 -3.20696
RightToes  1.74622e-010 0 -3.6325e-017
Spine  3.93047 -0.349491 4.42397
Spine1  -0.906172 0.281841 -3.32618
HEad  -5.81995 3.89088 -0.0265991
LeftShoulder1  0.91247 -2.19249 -8.484
LeftArm  -11.75 7.59859 1.7024
LeftForeArm  13.3018 -6.32581 -4.49134
LeftHand  -0.244104 0.0205437 5.32207
RightShoulder  0.378691 -0.538433 4.943
RightArm  -18.7262 2.75048 -0.293646
RightForeArm  -6.49785 2.29227 4.81935
RightHand  -1.31579 5.31478 -14.4967
LeftUpLeg  -1.82407 4.46183 3.2669
LeftLeg  1.12916 7.47279 -3.59
LeftFoot  1.08755 0.205769 -1.95069
LeftToes  -3.34697e-010 -1.70107e-010 -9.05613e-011
182
root  -48.129 41.4577 -36.2736 178.641 5.36653 179.443
RightUpLeg  -2.69644 -6.09988 -2.91521
RightLeg  5.68612 3.10005 2.92516
RightFoot  -0.798428 0.289835 -3.20169
RightToes  1.74622e-010 0 -3.6325e-017
Spine  4.13434 -0.157231 4.30019
Spine1  -1.13954 0.458269 -3.23107
HEad  -6.16896 4.06548 -0.296962
LeftShoulder1  0.968207 -2.382 -8.96871
LeftArm  -10.798 7.46167 0.978705
LeftForeArm  11.8525 -4.59845 -4.75907
LeftHand  -0.244104 0.0205437 5.32207
RightShoulder  0.446202 -0.21245 5.82137
RightArm  -17.7019 2.90205 -0.0958121
RightForeArm  -4.05834 1.23015 4.83381
RightHand  -1.13799 4.63321 -13.4183
LeftUpLeg  -1.86646 4.37528 3.1675
LeftLeg  1.10706 8.10584 -3.51023
LeftFoot  0.857178 0.201573 -1.93451
LeftToes  -3.34697e-010 -1.70107e-010 -9.05613e-011
183
root  -48.1807 41.4648 -36.3655 178.902 5.69086 179.517
RightUpLeg  -2.77066 -5.96027 -2.86243
RightLeg  5.46487 3.26809 2.8547
RightFoot  -0.762509 0.277527 -3.07071
RightToes  1.74622e-010 0 -3.6325e-017
Spine  4.24655 -0.0949402 4.23424
Spine1  -1.28519 0.509278 -3.1783
HEad  -6.54521 4.34192 -0.572285
LeftShoulder1  0.991491 -2.45363 -9.1843
LeftArm  -9.99648 7.71315 0.665791
LeftForeArm  12.2564 -3.54885 -4.90804
LeftHand  -0.244104 0.0205437 5.32207
RightShoulder  0.523071 0.122321 6.79946
RightArm  -16.9718 2.75739 -0.360777
RightForeArm  -3.32791 0.564622 4.86922
RightHand  -1.07214 3.80405 -13.7444
LeftUpLeg  -1.97625 4.33402 3.13173
LeftLeg  1.11528 8.4627 -3.45558
LeftFoot  0.729161 0.194823 -1.88498
LeftToes  -3.34697e-010 -1.70107e-010 -9.05613e-011
